- 
http://www.Speed.Cd 
       
http://www.Speed.Cd      fast  and The Hottest Private Tracker on the net

(((--Submit for invite!!--)))

Please Seed back to make the speed Faster!!!

------------------nfo--------------------------
-








































          
          
              
              
                    
                    
                    
                    

The.Seven.Little.Foys.1955.DVDRip.x264.AC3-SiC

Poster:
[img]http://img89.imageshack.us/img89/7915/posteruw.jpg[/img]

IMDB Link: 
http://www.imdb.com/title/tt0048604/

Description:
After the young wife of vaudevillian Eddie Foy passes away, he incorporates their seven children into the act and takes it on the road. 

MediaInfo:
General
Complete name                    : The.Seven.Little.Foys.1955.DVDRip.x264.AC3-SiC.mkv
Format                           : Matroska
Format version                   : Version 2
File size                        : 2.57 GiB
Duration                         : 1h 32mn
Overall bit rate                 : 3 956 Kbps
Encoded date                     : UTC 2011-08-24 22:50:26
Writing application              : mkvmerge v4.9.1 ('Ich will') built on Jul 11 2011 23:53:15
Writing library                  : libebml v1.2.1 + libmatroska v1.1.1

Video
ID                               : 2
Format                           : AVC
Format/Info                      : Advanced Video Codec
Format profile                   : High@L3.0
Format settings, CABAC           : Yes
Format settings, ReFrames        : 4 frames
Muxing mode                      : Header stripping
Codec ID                         : V_MPEG4/ISO/AVC
Duration                         : 1h 32mn
Bit rate                         : 3 493 Kbps
Width                            : 720 pixels
Height                           : 480 pixels
Display aspect ratio             : 4:3
Frame rate                       : 23.976 fps
Standard                         : NTSC
Color space                      : YUV
Chroma subsampling               : 4:2:0
Bit depth                        : 8 bits
Scan type                        : Progressive
Bits/(Pixel*Frame)               : 0.422
Stream size                      : 2.27 GiB (88%)
Writing library                  : x264 core 115 r1995 c1e60b9
Encoding settings                : cabac=1 / ref=3 / deblock=1:0:0 / analyse=0x3:0x133 / me=umh / subme=7 / psy=1 / psy_rd=1.00:0.00 / mixed_ref=1 / me_range=16 / chroma_me=1 / trellis=1 / 8x8dct=1 / cqm=0 / deadzone=21,11 / fast_pskip=1 / chroma_qp_offset=-2 / threads=9 / sliced_threads=0 / nr=0 / decimate=1 / interlaced=0 / bluray_compat=0 / constrained_intra=0 / bframes=3 / b_pyramid=2 / b_adapt=1 / b_bias=0 / direct=1 / weightb=1 / open_gop=1 / weightp=2 / keyint=250 / keyint_min=23 / scenecut=40 / intra_refresh=0 / rc_lookahead=40 / rc=crf / mbtree=1 / crf=18.0 / qcomp=0.60 / qpmin=0 / qpmax=69 / qpstep=4 / ip_ratio=1.40 / aq=1:1.00
Language                         : English

Audio
ID                               : 1
Format                           : AC-3
Format/Info                      : Audio Coding 3
Mode extension                   : CM (complete main)
Muxing mode                      : Header stripping
Codec ID                         : A_AC3
Duration                         : 1h 32mn
Bit rate mode                    : Constant
Bit rate                         : 384 Kbps
Channel(s)                       : 2 channels
Channel positions                : Front: L R
Sampling rate                    : 48.0 KHz
Bit depth                        : 16 bits
Compression mode                 : Lossy
Stream size                      : 255 MiB (10%)



Screenshots:
[img]http://img10.imageshack.us/img10/6107/vlcsnap2011082423h12m35.png[/img]
[img]http://img846.imageshack.us/img846/2476/vlcsnap2011082423h12m45.png[/img]
[img]http://img851.imageshack.us/img851/9522/vlcsnap2011082423h13m06.png[/img]
[img]http://img709.imageshack.us/img709/2451/vlcsnap2011082423h13m51.png[/img]
[img]http://img189.imageshack.us/img189/2914/vlcsnap2011082423h14m13.png[/img]

Note: N/A

Encoder: Brian

Enjoy!

Respects to CaptainHomey, Cyanide, CM8, Rx, THC, ELEKTRI4KA, 
Killerhz, PA, YeFsTe, BoxSlots, MrRep and everyone in the struggle...